<?xml version="1.0" encoding="iso-8859-1"?>
<!-- Generator: Adobe Illustrator 19.0.0, SVG Export Plug-In . SVG Version: 6.00 Build 0)  -->
<svg version="1.1" id="Capa_1" xmlns="http://www.w3.org/2000/svg" xmlns:xlink="http://www.w3.org/1999/xlink" x="0px" y="0px"
	 viewBox="0 0 512 512" style="enable-background:new 0 0 512 512;" xml:space="preserve">
<path style="fill:#937254;" d="M420.691,182.618H91.309l52.392,311.073c1.78,10.57,10.932,18.309,21.651,18.309h181.296
	c10.719,0,19.871-7.74,21.651-18.309L420.691,182.618z"/>
<g style="opacity:0.1;">
	<path d="M91.309,182.617l5.041,29.932h288.505L337.504,493.69c-1.78,10.57-10.932,18.31-21.651,18.31h30.795
		c10.719,0,19.871-7.74,21.651-18.31l52.392-311.073H91.309z"/>
</g>
<g>
	<path style="fill:#E4E7E9;" d="M436.243,182.618H75.757c-8.419,0-15.243-6.825-15.243-15.243V140.18
		c0-8.418,6.824-15.243,15.243-15.243h360.486c8.418,0,15.243,6.825,15.243,15.243v27.195
		C451.486,175.793,444.662,182.618,436.243,182.618z"/>
	<path style="fill:#E4E7E9;" d="M396.566,74.193H115.434c-10.962,0-19.848,8.886-19.848,19.848v30.896h320.827V94.041
		C416.414,83.079,407.527,74.193,396.566,74.193z"/>
</g>
<g style="opacity:0.1;">
	<path d="M436.243,124.937h-33.218c8.418,0,15.243,6.825,15.243,15.243v27.195c0,8.419-6.824,15.243-15.243,15.243h33.218
		c8.418,0,15.243-6.824,15.243-15.243V140.18C451.486,131.761,444.662,124.937,436.243,124.937z"/>
</g>
<path style="fill:#E4E7E9;" d="M93.123,269.567l21.459,127.408c0.585,3.474,3.594,6.019,7.117,6.019h268.603
	c3.523,0,6.532-2.544,7.117-6.019l21.459-127.408c0.742-4.403-2.652-8.416-7.117-8.416H100.24
	C95.775,261.151,92.381,265.164,93.123,269.567z"/>
<g style="opacity:0.1;">
	<path d="M411.76,261.151h-35.009c4.465,0,7.859,4.013,7.117,8.416l-21.459,127.408c-0.585,3.474-3.594,6.019-7.117,6.019h35.009
		c3.523,0,6.532-2.544,7.117-6.019l21.459-127.408C419.619,265.164,416.225,261.151,411.76,261.151z"/>
</g>
<g style="opacity:0.1;">
	<path d="M396.566,74.193h-33.218c10.962,0,19.848,8.886,19.848,19.848v12.235H95.586v18.661h320.827V94.041
		C416.414,83.079,407.527,74.193,396.566,74.193z"/>
</g>
<path style="fill:#60D195;" d="M169.872,0h-9.749c-4.345,0-7.868,3.523-7.868,7.868v66.325h25.484V7.868
	C177.739,3.523,174.217,0,169.872,0z"/>
<g style="opacity:0.1;">
	<rect x="152.25" y="57.887" width="25.484" height="16.305"/>
</g>
<g style="opacity:0.4;">
	<ellipse style="fill:#F98F9D;" cx="309.85" cy="347.43" rx="24.422" ry="14.635"/>
	<ellipse style="fill:#F98F9D;" cx="200.29" cy="347.43" rx="24.422" ry="14.635"/>
</g>
<g>
	<path style="fill:#3E4B58;" d="M195.716,327.063L195.716,327.063c-4.143,0-7.5-3.358-7.5-7.5v-10.124c0-4.143,3.358-7.5,7.5-7.5
		l0,0c4.142,0,7.5,3.358,7.5,7.5v10.124C203.216,323.705,199.857,327.063,195.716,327.063z"/>
	<path style="fill:#3E4B58;" d="M314.424,327.063c-4.142,0-7.5-3.357-7.5-7.5v-10.124c0-4.143,3.358-7.5,7.5-7.5s7.5,3.357,7.5,7.5
		v10.124C321.924,323.705,318.566,327.063,314.424,327.063z"/>
	<path style="fill:#3E4B58;" d="M272.781,327.308c0,9.644-7.989,17.422-17.711,17.076c-9.26-0.329-16.464-8.221-16.464-17.486
		V314.88c0-2.573,2.086-4.659,4.659-4.659h24.857c2.573,0,4.659,2.086,4.659,4.659V327.308z"/>
</g>
<g>
</g>
<g>
</g>
<g>
</g>
<g>
</g>
<g>
</g>
<g>
</g>
<g>
</g>
<g>
</g>
<g>
</g>
<g>
</g>
<g>
</g>
<g>
</g>
<g>
</g>
<g>
</g>
<g>
</g>
</svg>
