<svg height="368pt" viewBox="0 0 368 368" width="368pt" xmlns="http://www.w3.org/2000/svg"><path d="m184 296-176-64v64l176 64 176-64v-64zm0 0" fill="#cce4ff"/><path d="m184 168 176 64v-160l-176-64zm0 0" fill="#cce4ff"/><path d="m362.734375 64.480469-176-64c-1.765625-.640625-3.703125-.640625-5.46875 0l-176 64c-3.160156 1.152343-5.265625 4.160156-5.265625 7.519531v224c0 3.359375 2.105469 6.367188 5.265625 7.519531l176 64c.886719.320313 1.804687.480469 2.734375.480469s1.847656-.160156 2.734375-.480469l176-64c3.160156-1.152343 5.265625-4.160156 5.265625-7.519531v-224c0-3.359375-2.105469-6.367188-5.265625-7.519531zm-10.734375 156.09375-160-58.183594v-142.964844l160 58.175781zm-168-44.0625 64.59375 23.488281-64.59375 23.488281-64.59375-23.488281zm-88 32 64.585938 23.488281-64.585938 23.488281-64.59375-23.488281zm88 32 64.59375 23.488281-64.59375 23.488281-64.59375-23.488281zm88 14.976562-64.585938-23.488281 64.585938-23.488281 64.59375 23.488281zm-96-236.0625v142.972657l-160 58.1875v-142.984376zm8 332.0625-168-61.089843v-46.972657l165.265625 60.09375c.886719.320313 1.804687.480469 2.734375.480469s1.847656-.160156 2.734375-.480469l165.265625-60.09375v46.972657zm0 0" fill="#007aff"/></svg>