<?xml version="1.0" encoding="iso-8859-1"?>
<!-- Generator: Adobe Illustrator 19.0.0, SVG Export Plug-In . SVG Version: 6.00 Build 0)  -->
<svg version="1.1" id="Capa_1" xmlns="http://www.w3.org/2000/svg" xmlns:xlink="http://www.w3.org/1999/xlink" x="0px" y="0px"
	 viewBox="0 0 512 512" style="enable-background:new 0 0 512 512;" xml:space="preserve">
<path style="fill:#B3B5B7;" d="M212.764,54.792h-3.439c-15.454,0-27.981,12.527-27.981,27.981l0,0l29.7,20.684l29.7-20.684l0,0
	C240.745,67.32,228.218,54.792,212.764,54.792z"/>
<path style="fill:#9A9B9D;" d="M201.948,82.772L201.948,82.772c0-12.459,8.145-23.01,19.398-26.634
	c-2.705-0.871-5.588-1.346-8.582-1.346h-3.439c-15.454,0-27.981,12.528-27.981,27.981l0,0l29.7,20.684l10.302-7.174L201.948,82.772z
	"/>
<path style="fill:#3B484A;" d="M494.931,216.072c-29.695-44.713-82.518-70.543-132.205-85.567
	c-23.754-7.182-37.725-19.831-45.661-30.304c-8.399-11.085-21.643-17.428-35.552-17.428H70.83c-6.334,0-11.468,5.134-11.468,11.468
	v0.589c0,5.447,3.851,10.049,9.168,11.235c24.384,5.436,39.525,30.804,39.525,30.804l313.858,263.145
	c19.089-9.205,36.961-21.949,52.13-36.696C512.439,325.994,525.767,262.504,494.931,216.072z M452.913,331.888v0.001
	c-12.531-57.86-33.104-106.058-53.804-144.819l1.064,0.005c30.509,14.24,53.263,32.028,66.838,52.468
	C482.431,262.764,481.256,303.413,452.913,331.888z"/>
<path style="fill:#96D7E8;" d="M314.036,136.87H108.053c0,0-103.071,85.601-107.875,263.144l210.867,28.597l210.867-28.597
	C417.107,222.47,314.036,136.87,314.036,136.87z"/>
<path style="fill:#68C9E0;" d="M61.989,400.015C66.794,222.47,169.864,136.87,169.864,136.87h-61.811
	c0,0-103.071,85.601-107.875,263.145l210.867,28.597l30.905-4.191L61.989,400.015z"/>
<path style="fill:#3B484A;" d="M421.911,400.015H0.178c-0.199,7.239-0.234,14.631-0.091,22.176
	c0.369,19.428,16.155,35.018,35.587,35.018h350.742c19.431,0,35.219-15.591,35.587-35.018
	C422.146,414.645,422.111,407.254,421.911,400.015z"/>
<path style="fill:#333E40;" d="M61.898,422.19c-0.143-7.545-0.108-14.937,0.091-22.176H0.178
	c-0.199,7.239-0.234,14.631-0.091,22.176c0.369,19.428,16.155,35.018,35.587,35.018h61.811
	C78.053,457.209,62.267,441.618,61.898,422.19z"/>
<path style="fill:#A37F60;" d="M340.415,220.79c-1.77-2.985-3.538-5.846-5.296-8.608H86.971c-1.759,2.761-3.526,5.623-5.296,8.608
	c-26.686,45.011-42.778,95.917-47.987,151.657h354.713C383.193,316.706,367.1,265.799,340.415,220.79z"/>
<path style="fill:#8B6C52;" d="M86.971,212.182c-1.759,2.761-3.526,5.623-5.296,8.608c-26.686,45.011-42.778,95.917-47.987,151.657
	h29.89c6.01-68.587,26.637-121.865,48.153-160.265H86.971z"/>
<g>
	<path style="fill:#3B484A;" d="M142.805,301.652c-4.267,0-7.726-3.459-7.726-7.726v-12.351c0-4.267,3.459-7.726,7.726-7.726
		s7.726,3.459,7.726,7.726v12.351C150.532,298.193,147.072,301.652,142.805,301.652z"/>
	<path style="fill:#3B484A;" d="M279.285,301.652c-4.267,0-7.726-3.459-7.726-7.726v-12.351c0-4.267,3.459-7.726,7.726-7.726
		s7.726,3.459,7.726,7.726v12.351C287.011,298.193,283.552,301.652,279.285,301.652z"/>
	<path style="fill:#3B484A;" d="M211.045,310.779c-10.295,0-19.958-4.3-26.511-11.798c-2.808-3.213-2.481-8.094,0.732-10.902
		s8.094-2.481,10.902,0.732c3.619,4.14,9.041,6.514,14.876,6.514s11.258-2.375,14.876-6.514c2.808-3.213,7.69-3.541,10.902-0.732
		c3.213,2.808,3.542,7.689,0.732,10.902C231.002,306.479,221.339,310.779,211.045,310.779z"/>
</g>
<g>
</g>
<g>
</g>
<g>
</g>
<g>
</g>
<g>
</g>
<g>
</g>
<g>
</g>
<g>
</g>
<g>
</g>
<g>
</g>
<g>
</g>
<g>
</g>
<g>
</g>
<g>
</g>
<g>
</g>
</svg>
